<?xml version='1.0' encoding='utf-8'?>
<svg xmlns="http://www.w3.org/2000/svg" viewBox="0 0 400 662.38"> <defs> <linearGradient id="q" x1="327.86" x2="342.86" y1="647.36" y2="630.22" gradientUnits="userSpaceOnUse"> <stop stop-color="#612a0e" offset="0"/> <stop stop-color="#905f07" offset="1"/> </linearGradient> <linearGradient id="p" x1="345.71" x2="227.86" y1="346.65" y2="310.93" gradientUnits="userSpaceOnUse"> <stop stop-color="#cfff50" offset="0"/> <stop stop-color="#c7f12d" offset="1"/> </linearGradient> <linearGradient id="o" x1="301.03" x2="149.5" y1="322.02" y2="236.66" gradientUnits="userSpaceOnUse"> <stop stop-color="#b5db2e" offset="0"/> <stop stop-color="#869b14" offset="1"/> </linearGradient> <linearGradient id="n" x1="132.33" x2="40.406" y1="200.05" y2="99.031" gradientUnits="userSpaceOnUse"> <stop stop-color="#869b14" offset="0"/> <stop stop-color="#cfff4b" offset="1"/> </linearGradient> <linearGradient id="m" x1="-275.71" x2="-326.07" y1="-226.21" y2="-373.35" gradientUnits="userSpaceOnUse"> <stop stop-color="#413121" offset="0"/> <stop stop-color="#504b46" offset="1"/> </linearGradient> <linearGradient id="l" x1="40.154" x2="37.881" y1="134.13" y2="163.68" gradientUnits="userSpaceOnUse"> <stop stop-color="#804f15" offset="0"/> <stop stop-color="#ac7034" offset="1"/> </linearGradient> <linearGradient id="k" x1="-135.71" x2="-170.71" y1="525.22" y2="687.36" gradientUnits="userSpaceOnUse"> <stop stop-color="#c3e91a" offset="0"/> <stop stop-color="#b0c72f" offset="1"/> </linearGradient> <linearGradient id="j" x1="-86.429" x2="-94.286" y1="493.08" y2="647.36" gradientUnits="userSpaceOnUse"> <stop stop-color="#788516" offset="0"/> <stop stop-color="#87922e" offset="1"/> </linearGradient> <linearGradient id="i" x1="-31.429" x2="70.714" y1="398.08" y2="470.93" gradientUnits="userSpaceOnUse"> <stop stop-color="#b6cd23" offset="0"/> <stop stop-color="#98b21d" offset="1"/> </linearGradient> <linearGradient id="h" x1="225.71" x2="95.714" y1="407.36" y2="495.22" gradientUnits="userSpaceOnUse"> <stop stop-color="#bde11d" offset="0"/> <stop stop-color="#89a103" offset="1"/> </linearGradient> <linearGradient id="g" x1="248.57" x2="252.14" y1="678.08" y2="623.79" gradientUnits="userSpaceOnUse"> <stop stop-color="#7d4513" offset="0"/> <stop stop-color="#935b2b" offset="1"/> </linearGradient> <linearGradient id="f" x1="110.71" x2="190" y1="837.36" y2="869.51" gradientUnits="userSpaceOnUse"> <stop stop-color="#727824" offset="0"/> <stop stop-color="#8ca513" offset="1"/> </linearGradient> <linearGradient id="e" x1="320.71" x2="207.14" y1="908.08" y2="874.51" gradientUnits="userSpaceOnUse"> <stop stop-color="#c8ec1d" offset="0"/> <stop stop-color="#75890f" offset="1"/> </linearGradient> <linearGradient id="d" x1="487.14" x2="416.43" y1="553.79" y2="520.22" gradientUnits="userSpaceOnUse"> <stop stop-color="#c6ee2b" offset="0"/> <stop stop-color="#b4d519" offset="1"/> </linearGradient> <linearGradient id="c" x1="257.14" x2="305.71" y1="505.93" y2="472.36" gradientUnits="userSpaceOnUse"> <stop stop-color="#6d3a05" offset="0"/> <stop stop-color="#b4773c" offset="1"/> </linearGradient> <linearGradient id="b" x1="305.71" x2="324.29" y1="577.36" y2="558.08" gradientUnits="userSpaceOnUse"> <stop stop-color="#636b16" offset="0"/> <stop stop-color="#eff8a1" offset="1"/> </linearGradient> <linearGradient id="a" x1="393.57" x2="395.71" y1="664.51" y2="649.51" gradientUnits="userSpaceOnUse"> <stop stop-color="#666721" offset="0"/> <stop stop-color="#beb44b" offset="1"/> </linearGradient> </defs> <g transform="matrix(.39261 0 0 .39261 186.87 230.71)"> <path d="m373.57 658.79c-18.571-4.2857-31.429 2.1429-42.143-2.8571s-17.143-17.857-22.857-25 2.1429-13.571-10-1.4286-17.143 8.5714-16.429 0.71429 14.286-5 5-18.571-18.571-27.143-25.714-32.143-8.5714-27.857-8.5714-27.857 29.286 24.286 32.143 27.857 17.143 15 25 17.143 40 8.5714 40 8.5714 19.286 0 10.714 4.2857-17.143 5-17.857 10.714-0.71428 8.5714-4.2857 10-10-6.4286-3.5714 1.4286 9.2857 7.8571 19.286 8.5714 22.857 0 22.857 0l7.1428 8.5714z" fill="url(#q)"/> <path d="m252.84 551.66s1.4509 22.844 8.5938 27.844c6.6439 4.6507 15.154 16.759 23.781 29.344 7.5601 2.3927 12.625 5.6562 12.625 5.6562s-9.2589 9.2857 4.3125 5 14.263-13.571 31.406-10c14.827 3.0889 15.267 1.928 20.188 2.9375 2.2159-0.82418 4.5836-1.7449 6.9688-2.9375 8.5714-4.2857-10.719-4.2812-10.719-4.2812s-32.143-6.4196-40-8.5625-22.143-13.585-25-17.156-32.156-27.844-32.156-27.844z" fill="#4c3412"/> <path d="m206.43 520.22c5.7143 10 11.429 31.429 20.714 38.571s20.714 7.8572 20.714 7.8572 10-5 17.143-2.1429 31.429 10 31.429 10 4.2857-2.8571 1.4286-5-19.286-13.571-25.714-16.429-17.857-0.71429-29.286-15-33.571-28.571-33.571-28.571l-19.286-14.286z" fill="#844f15"/> <path d="m103.57 239.51c30-7.1429 12.143-24.286 95.714 2.1429s92.143 36.429 102.86 37.857 32.143 10.714 32.143 10.714-2.8571 7.8571 0 7.8571 27.857 21.429 27.857 21.429-17.857 4.2857-14.286 6.4286 22.857 4.2857 18.571 8.5714-10.714 5.7143-6.4286 7.1429 28.571 7.1428 28.571 7.1428-7.8571 8.5714-5 11.429 18.571 15.714 10.714 16.429-18.571 9.2857-13.571 10.714 27.143 10.714 24.286 12.143-20.714 1.4286-7.1429 4.2857 17.857 6.4286 17.857 6.4286-10.714 8.5714-5 9.2857 19.286 3.5714 19.286 3.5714-10 7.8571 0 8.5714 13.571 5 13.571 5-10 10.714 5.7143 12.857 25 5 25 5 10.714 8.5714 6.4286 9.2857-57.857-7.8571-72.143-17.143-33.571-27.857-61.429-35-57.857-25.714-87.857-40-101.43-81.429-125.71-92.857-30-39.286-30-39.286z" fill="url(#p)"/> <path d="m117.18 232.12c17.678-1.0102 24.244-2.5254 28.284-1.0102s51.013 10.102 72.731 27.779 80.307 49.497 90.409 67.68 53.033 70.711 74.246 80.307 37.376 25.759 32.83 23.739-38.891-17.678-49.497-28.284-47.477-55.053-52.023-60.609-40.406-41.921-48.487-48.487-38.891-22.223-52.528-31.82-66.165-24.244-68.69-23.739-38.386 2.5254-38.386 2.5254z" fill="url(#o)"/> <path d="m-32.83 110.39c8.8388-7.8287-0.50508 1.2627 0.25254-9.3439s-1.5152-17.173 0.50508-14.9 6.0609-2.2728 4.7982-3.283-5.8084-13.385-2.5254-11.617 7.8287 3.283 9.0914 3.283-1.7678-9.5964 0-7.5761 8.5863 4.2932 8.8388 2.0203-2.5254-7.3236-0.75762-6.8185 13.385 5.3033 25.001 8.3338 16.162 0.75761 17.93 0.25254 17.93-8.5863 33.588-4.2932 7.5762-10.354 46.214 9.5964 45.709 20.961 53.791 26.516 19.951 6.3135 22.728 6.0609 3.0305 7.5761 3.0305 7.5761 14.647 1.0102 14.647 2.0203-2.0203 4.0406-0.50507 4.7982-8.5863 3.5355-8.5863 3.5355-1.2627 2.2728 1.7678 4.0406 8.0812 8.0812 12.627 7.0711 11.869 5.8084 11.869 5.8084-13.637 1.2627-12.627 1.5152 5.3033 7.5761 9.3439 8.5863 8.0812 0.50507 7.5761 2.7779-10.859 3.7881-8.0812 5.3033 9.3439 1.5152 7.3236 3.7881-12.122 4.5457-9.3439 6.0609 8.0812 3.0305 6.0609 4.0406-5.8084 4.2932-6.0609 5.5558 0.75761 11.617-1.0102 11.617 0.25253-4.2932-9.3439-5.5558-5.3033-1.2627-3.0304 3.0305-0.50508 5.3033-3.0305 4.5457-8.3338-1.2627-6.0609 1.0102 7.3236 4.5457 5.8084 4.7982-7.5761 0.50508-7.5761 0.50508 1.2627 5.5558-0.50508 5.0508-4.0406-1.7678-4.5457 3.0305 1.0102 11.364-2.7779 7.8287-8.5863-9.0914-13.132-9.0914-14.142 1.5152-13.89 3.0304 2.5254 3.7881 0 4.5457-6.3134 1.0102-6.3134 2.2728 2.7779 4.2932-4.5457 4.0406-7.8287-2.7779-8.3338 1.5152-1.0102 7.3236-9.3439 5.8084-7.3236 0.50507-11.869 6.566-21.213 9.0914-25.254 10.859-33.335 8.0812-33.335 0 5.0508-30.052 0.75761-30.81-1.5152 17.678-10.859 3.7881-16.668-23.739-19.445-24.496-18.183-11.869-20.203-14.647-3.0305 10.859-8.0812-7.5762-16.668-13.89-20.456-27.022-12.627-36.618-12.627-36.618z" fill="url(#n)"/> <path d="m20.714 295.22c-6.4286-25-20.714-57.857-29.286-75s-22.143-41.429-24.286-62.143-2.8571-13.571-22.857-45.714-78.571-114.29-127.86-192.14-73.571-124.29-79.286-126.43-15 5-21.429-5-9.2857-35.714-16.429-55-27.143-74.286-38.571-95-28.571-75-28.571-75-23.571 48.571-28.571 69.286-43.571 125-45.714 142.14-25.714 80-25.714 80-11.429-22.857-7.1429-35.714 18.571-74.286 22.857-93.571-5-17.143 7.1429-34.286 22.857-70.714 25.714-77.857 26.429-59.286 38.571-103.57 18.571-97.857 18.571-97.857l32.143 19.286s2.8571 21.429 0.71429 26.429-2.8572 51.429 1.4286 86.429 34.286 76.429 37.143 89.286-5 7.8572-2.1428 22.857 41.429 104.29 61.429 134.29 117.14 187.14 130 207.14 57.857 97.857 72.143 111.43 35 21.429 35 21.429 5-5 7.1429-2.1429 20.714 5.7143 20.714 5.7143l-2.8571 20-28.571 5.7143-12.857-0.71429s11.429 13.571 15.714 31.429 11.429 34.286 15.714 44.286 19.286 31.429 19.286 31.429l-12.857 20.714z" fill="url(#m)"/> <path d="m-338.09-573.22c2.16 23.099 5.9089 48.97 0.25 59.156-7.1429 12.857-4.2902 33.558-0.71875 47.844s8.5714 38.589 15 52.875 19.272 47.835 22.844 51.406 5.7188 7.1429 5.7188 10-7.1429 10.004-5 15.719 14.987 41.429 17.844 50 15.013 23.589 17.156 27.875-2.8705-0.71429 12.844 30 37.884 64.263 49.312 76.406 58.567 87.156 64.281 97.156 7.8482 34.272 18.562 42.844 47.857 69.304 55 77.875 34.299 52.866 47.156 61.438 12.853 6.4107 14.281 12.125 5 16.438 5 16.438l22.844-8.5625 8.75-9.1875 0.53125-3.6875s-18.576-2.8616-20.719-5.7188-7.125 2.1562-7.125 2.1562-20.714-7.8661-35-21.438-59.299-91.438-72.156-111.44-110-177.12-130-207.12-58.549-119.28-61.406-134.28 4.9822-10.018 2.125-22.875-32.839-54.281-37.125-89.281-3.5804-81.438-1.4375-86.438-0.71875-26.406-0.71875-26.406l-8.0938-4.875z" fill="#fef1eb"/> <path d="m-342.78-466.66c-1.0545 0.0533-2.451 0.42925-4.2188 1.25-14.142 6.566-19.693 19.722-22.219 31.844-0.0236 0.11321-0.039 0.25804-0.0625 0.375 0.39241-0.81763 1.4375-3.0312 1.4375-3.0312s17.134 54.286 28.562 75c5.0865 9.2193 11.876 25.244 18.469 41.875 0.0362-0.0244 0.0566-0.0711 0.0937-0.0937 11.617-7.0711 23.218-18.159 20.188-27.25s-4.027-12.623-7.5625-6.5625-13.625 6.5625-13.625 6.5625-1.0305-9.1071 2-20.219-7.5582-8.5969-11.094-20.719-10.121-37.366-13.656-44.438-8.0769-10.111-3.5312-14.656c3.9775-3.9775 12.601-20.31 5.2188-19.938zm57.094 252.84c0.45654 0.94702 0.9109 1.8232 1.4062 2.5938 6.4286 10 15.723 2.8572 21.438 5 2.019 0.75712 6.4044 7.1592 13.344 18.406-3.7847-17.256-4.6478-23.819-15.156-25.031-8.8641-1.0228-15.849-0.68813-21.031-0.96875z" fill="#37261e"/> <path d="m11.364 142.47c6.8185-4.2932 10.607-3.5355 12.122-8.8388s-2.7779-6.8185 6.0609-11.364 21.971-15.91 26.769-16.668 10.607-6.566 17.425-7.5761 19.445-6.8185 19.445-6.8185 0.50508 6.8185-0.75761 9.849-0.50508 4.7982-5.5558 8.8388-9.3439 7.8287-15.152 13.132-15.657 16.92-18.435 18.94-9.849 9.0914-14.142 11.617-11.617 1.0102-7.8287 2.7779 7.3236-2.5254 15.657-0.75762 16.162-1.2627 25.254 2.7779 18.94 21.466 19.193 32.325 2.0203 36.113 2.0203 36.113l-17.425 5.3033s2.7779-30.305 1.5152-39.901-2.7779-19.193-13.132-20.961-17.425-0.75762-17.425-0.75762 6.3134 3.5355 4.0406 4.0406-26.516-0.50508-28.032-0.25254 4.5457 1.7678 5.8084 3.0305 1.5152 5.3033-4.5457 2.2728-12.879-2.5254-16.162-6.8185-4.0406-7.8287-9.5964-10.607-10.354-6.8185-9.849-7.8287 12.879-6.0609 14.9-7.0711 7.8287-4.7982 7.8287-4.7982z" fill="url(#l)"/> <path d="m71.219 157.97c3.4951 2.5995 7.0315 5.9819 9.3438 11.531 3.7881 9.0914 4.2787 34.323 4.5312 36.344s-0.23652 13.651 1.5312 14.156c0.83541 0.23869 3.7377 0.93243 6.4688 1.5938-0.44393-6.5476-1.4821-22.076-1.6875-30.906-0.25254-10.859-10.096-28.272-19.188-32.312-0.33658-0.14959-0.66679-0.27544-1-0.40625z" fill="#fff9f0"/> <path d="m-90.714 437.36c-37.143 16.429-75 12.857-90 15.714s-15 2.8571-11.429 3.5714 12.857 2.1428 6.4286 3.5714-35.714 7.1428-35.714 7.1428 1.4286 5 2.8571 7.8572-12.857 7.1428-13.571 12.143 8.5714 5 4.2857 10-22.857 2.1429-20.714 6.4286 10 2.1429 5.7143 8.5714-9.2857 17.857-5 18.571 12.143-1.4286 10.714 5-12.857 19.286-6.4286 20.714 10.714 3.5714 5 8.5714-13.571 5-8.5714 7.8571 10 8.5714 5.7143 10.714-13.571 7.1429-11.429 10.714 5 8.5714 3.5714 11.429-6.4286 14.286 4.2857 13.571 16.429-7.8571 12.143 3.5714-8.5714 13.571-4.2857 15.714 5.7143 1.4286 4.2857 7.8572-9.2857 17.857-5 19.286-1.4286-0.71428-2.8572 5.7143-10.714 12.857-2.8571 10.714 10.714-13.571 12.143-5-2.1429 10-3.5714 15 9.2857 2.8572 5.7143 7.8572-25.714 32.143-16.429 29.286 15.714-13.571 15-7.1429-7.1428 19.286-7.1428 19.286-6.4286 15-2.1429 15.714 12.857-10.714 8.5714-0.71428-10 13.571-10.714 20 12.143-2.8572 8.5714 5.7143-6.4286 10-10 14.286-9.2857 3.5714-5 10 6.4286 6.4286-0.71428 9.2857-10.714 3.5714-10.714 3.5714-7.8571 10.714-11.429 15 2.8571 8.5714 5 4.2857 16.429-7.8571 23.571-12.857 8.5714-8.5714 9.2857-5.7143 5.7143-0.71429 10-7.1429 12.857-18.571 14.286-15.714 19.286-15 25-15 0-14.286 7.8571-7.8571 2.8571-2.1429 11.429-7.1429 12.143-10.714 20-10 9.2857-5.7143 12.857-10 13.571-5.7143 17.143-10 12.857-7.1428 25-31.429 9.2857-48.571 12.143-60 10-36.429 7.8571-52.857-6.4286-52.857-6.4286-78.571-1.4286-38.571-2.8571-54.286-3.5714-21.429-3.5714-21.429z" fill="url(#k)"/> <path d="m-90.719 437.38c-37.143 16.429-75 12.83-90 15.688s-15.009 2.8795-11.438 3.5938 12.866 2.1339 6.4375 3.5625c-1.1157 0.24793-3.53 0.73368-5.75 1.1875 3.0954 4.8152 4.1629 8.9621 1.4688 11.656-5 5-24.295 16.438-11.438 21.438s32.156-5.7188 32.156-5.7188 2.8438 10.737 7.8438 3.5938 15.719-20.719 15.719-20.719l5 10s18.567-22.875 19.281-17.875 3.5714 28.589 5 32.875-0.7009 23.554 2.1562 27.125 4.2902 8.567 5.7188 24.281 4.9821 17.152 7.125 36.438-17.125 112.16-17.125 112.16-5.7188 7.8527-0.71875 4.2812 9.9866-15.018 7.8438-7.875c-1.995 6.65-13.272 40.538-11.938 49.219 3.3272-1.4014 6.6235-2.8045 8.375-4.9062 3.5714-4.2857 12.857-7.1518 25-31.438s9.2991-48.571 12.156-60 9.9866-36.446 7.8438-52.875-6.4375-52.848-6.4375-78.562-1.4152-38.567-2.8438-54.281-3.5625-21.438-3.5625-21.438l-7.875-1.4062z" fill="url(#j)"/> <path d="m-91.938 458.41-7.0625 4.0312c-17.742 23.163-29.198 34.784-34.906 45.656-5.008-0.74563-16.649-0.16063-27.729 2.8379-5.5159 1.4928-30.304 12.095-36.365 15.631s-23.219 14.156-23.219 14.156c8.0812-1.0102 57.064-27.276 63.125-27.781 5.3123-0.44268 18.535 0.25255 21.875 0.4375-5.2652 13.816-14.598 47.162-20.406 72.969-4.4967 2.5467-17.141 9.6527-24.188 12.969-8.5863 4.0406-39.413 35.855-44.969 40.906 0 0 5.5531-3.5219 9.5938-7.5625s33.84-25.278 40.406-31.844c4.5485-4.5485 12.907-6.6237 17.656-7.5-0.75457 3.5826-1.4243 6.9822-1.9688 10.031-5.0508 28.284-52.043 157.58-57.094 168.69-4.056 8.9231-13.63 29.901-19.344 39.125 2.6682-2.7204 5.8245-5.9223 7.2188-7.7812 3.0305-4.0406 39.913-87.886 45.469-108.59s25.746-82.331 29.281-92.938c0.45128-1.3538 0.99092-3.5259 1.625-6.25 1.9633 3.4151 5.4154 9.1997 8.5 13.312 4.5457 6.0609 8.0531 24.252 12.094 52.031s1.5312 67.656 1.5312 67.656 4.5574-30.279 5.0625-39.875-4.0633-55.575-7.0938-63.656c-2.2963-6.1234-13.51-25.757-18.844-34.969 4.5479-20.941 12.006-60.235 18.844-71.094 0.0546-0.0868 0.13144-0.19277 0.1875-0.28125 3.5985 8.6719 22.679 54.725 24.062 58.875 1.5152 4.5457 11.125 59.094 11.125 59.094s-4.0574-43.434-4.5625-50-23.735-61.637-25.25-66.688c-0.59706-1.9902-1.4293-4.1274-2.2188-6.0938 10.612-15.685 31.629-43.652 32.531-45.906 1.0102-2.5254 5.0312-9.5938 5.0312-9.5938zm-144.59 352.75c-3.1313 3.1925-5.5566 5.676-3.375 4.3125 0.79584-0.4974 1.9735-2.0502 3.375-4.3125z" fill="#dfff46"/> <path d="m86.873 213.94c41.416 36.365 79.802 26.264 124.25 77.782s49.497 74.751 49.497 74.751c-5.4797-5.3273-9.5462-6.4151-13.132-6.0609 9.5378 8.8038 14.27 19.667 17.173 31.315l-9.0914-2.0203s8.5819 8.3673 7.0711 18.183c-3.1773 3.3122-8.5324 3.8478-8.0812 5.0508 6.1587 6.4757 7.5089 13.252 6.0609 20.203-3.9437 0.0461-7.0518-2.415-9.0914-8.0812 2.4874 7.6576 4.3143 14.902 3.0305 20.203-4.0908-8.2961-7.9666-14.228-11.112-12.122 1.8417 5.9433 7.9597 10.224 2.0203 19.193-3.3214-1.4384-5.5053-5.1519-10.102-4.0406 6.2151 8.6963 8.0299 15.362 8.0812 21.213-3.2-2.3806-5.7446-5.042-12.122-6.0609 3.6091 7.058 9.714 12.244 8.0812 23.234-2.5861-3.1244-5.5538-4.7222-9.0914-4.0406 6.7433 10.224 5.7045 23.367 5.0508 36.365-2.6932-4.7991-4.77-10.677-11.112-9.0914 8.8188 9.7592 9.6886 22.301 9.0914 35.355-11.48-9.1377-14.365-19.139-23.234-20.203 0.0642 9.1972 0.22917 18.455-2.0203 26.264l-10.102-8.0812c-1.6699 6.7535 2.0796 16.63 0 27.274-3.9364-4.591-7.5819-8.2128-10.102-8.0812 1.7193 10.851 2.4602 22.146-1.0102 35.355-2.3234-3.549-3.5782-8.5939-8.0812-9.0914-0.46851 9.4197-2.2623 18.271-6.0609 26.264-2.8212-5.1163-5.5705-10.347-6.0609-19.193-2.2849 6.3493-4.2509 5.0479-6.0609 0-2.7649 1.293-3.086 8.2884-3.0304 16.162-2.5421-3.8555-6.5716-6.2236-6.0609-13.132-7.4765 2.0568-6.7947 26.236-17.173 39.396-2.1818-7.8513-3.8209-10.818-5.0508-10.102-1.2881 13.756-10.155 22.001-16.162 32.325-0.67701-9.3765-0.25632-20.125-4.5151-25.024 0.0372 5.9038 0.18435 11.881-2.556 15.933-3.3549-0.55352-7.0165-0.73893-8.0812-4.0406-2.452 18.506-8.6467 34.15-19.193 46.467-0.64023-6.2773-2.6588-10.321-6.0609-12.122-4.6972 13.149-5.3894 30.303-15.152 38.386-3.2484-2.9974-4.6538-7.2235-5.0508-12.122-1.9005 8.0589-3.1038 16.598-7.0711 23.234-1.3469-1.7643-2.6937-2.041-4.0406 0 3.4579 7.9608 5.3323 14.497 4.0406 18.183-4.2868-3.3751-4.9007-1.6081-7.0711-2.0203-6.1191 4.9247-8.6806 17.557-12.122 28.284-18.939-18.605-11.659-24.856-22.223-19.193 2.3121-9.96 11.141-3.0794 11.112-18.183-3.3408-1.4263-6.5962-2.8749-7.0711-5.0508 0.39997-7.918 3.91-11.948 8.0812-15.152 2.8356-7.251 2.9646-10.483 2.0203-12.122-4.3938-3.0697-9.2876 2.8596-14.142 8.0812 0.8167-9.8615-0.73433-20.907 9.0914-26.264l-7.0711 1.0102c0.60538-4.9934 1.1936-9.9967 5.0508-13.132-3.7042-1.6857-6.8494 0.54162-10.102 2.0203 2.1089-6.3622 6.697-11.733 11.112-17.173-7.8759 0.11146-11.368 7.7372-16.162 13.132-5.8507-7.6582 1.0278-23.995 5.0508-38.386-2.0023 0.92159-3.0911 2.0093-10.102 2.0203 1.0618-8.3018 4.1734-11.991 7.0711-16.162-7.3132 7.4241-19.548 4.2678-22.223 17.173-6.505-13.132 7.2232-26.264 12.122-39.396-3.2259-3.4544-7.5257-3.6869-13.132 0-3.6016-5.7797-1.9516-13.529 2.0395-22.156-6.8351-6.5073-18.129 8.5354-27.5 14.286-2.626-14.665 4.2288-24.839 10.357-35.357-3.29-0.7038-6.7311-0.7525-11.429 4.6428 1.6305-8.6545 1.8203-17.225 12.857-26.429-4.8198 3.4009-10.303 3.4861-16.071 2.1429 0.72048-6.2845 4.1483-12.027 7.1429-17.857-9.2232-2.7577-15.514 10.319-22.5 19.643-4.2174-8.0311-0.98657-20.92 5.7143-36.071-1.7549 0.20596-3.9638 1.471-7.1429 5-3.2513-8.4421 3.3121-15.657 7.1429-23.214-1.8406-1.4653-5.4219-0.31948-11.071 3.9286 2.327-7.2294 6.611-13.48 11.786-19.286-3.1549-1.4794-7.4481-1.0074-13.929 3.2143-1.4985-6.7128 3.4758-13.045 10-19.286-13.508-6.3246-21.327 7.2587-31.429 12.857-4.9134-1.5516 5.0287-25.592 7.5-26.071 4.0871-0.79352-1.9852-9.4376-5.7143-7.1428-1.8785-7.3321 12.53-9.1043 9.2857-13.929-4.1043-0.50736-5.7695-2.2343-6.0714-4.6428 4.1244-6.3174 9.8675-7.7784 15.357-10-4.079-2.4102-8.9666-4.5508-10.357-7.8572 2.9628-6.8791 11.461-11.262 15.357-11.607-6.4477-2.1904-7.7755-5.7014-5.3571-10.179 3.7223-4.8945 10.554-7.395 16.786-10.357-0.85687-2.9383-9.2052-1.3816-14.286-1.7857 4.1711-8.4012 15.506-11.071 23.929-16.071l-7.5 0.35715c3.4359-7.9964 12.623-8.9633 20-12.143-3.8292-0.94257-5.4346-2.997-6.4286-5.3571 8.5714-9.8214 34.643-16.071 49.643-31.786s61.429-58.571 63.929-63.571 14.286-16.429 14.286-16.429z" fill="url(#i)"/> <path d="m86.875 213.94-5.8125 2.3438s-11.781 11.438-14.281 16.438c-0.32928 0.65857-1.4437 2.0202-3.125 3.8438 15.341 13.05 26.36 27 31.344 50.812 6.4286 30.714-18.558 157.13-17.844 163.56s-1.442 54.277-2.1562 58.562-20.004 115.01-25.719 132.16-27.152 78.549-26.438 96.406c0.33647 8.4117 1.8145 23.62 3.25 37.375l0.15625 0.15625c3.4412-10.727 6.0059-23.388 12.125-28.312 2.1704 0.41217 2.8069-1.3439 7.0938 2.0312 1.2917-3.6862-0.60463-10.227-4.0625-18.188 1.3469-2.041 2.7156-1.7643 4.0625 0 3.9673-6.6353 5.162-15.16 7.0625-23.219 0.39697 4.8984 1.8141 9.1276 5.0625 12.125 9.7629-8.0831 10.428-25.257 15.125-38.406 3.4021 1.8011 5.4223 5.8477 6.0625 12.125 10.546-12.317 16.767-27.963 19.219-46.469 1.0647 3.3017 4.7076 3.509 8.0625 4.0625 2.7404-4.0521 2.5997-10.034 2.5625-15.938 4.2587 4.8994 3.823 15.655 4.5 25.031 6.0076-10.324 14.899-18.587 16.188-32.344 1.2299-0.71625 2.8494 2.2425 5.0312 10.094 10.378-13.16 9.711-37.318 17.188-39.375-0.51073 6.9084 3.5204 9.2695 6.0625 13.125-0.0555-7.874 0.26631-14.863 3.0312-16.156 1.81 5.0479 3.7776 6.3493 6.0625 0 0.49044 8.8454 3.2413 14.071 6.0625 19.188 3.7986-7.9925 5.594-16.862 6.0625-26.281 4.503 0.49745 5.7391 5.5448 8.0625 9.0938 3.4704-13.21 2.7193-24.493 1-35.344 2.5196-0.13153 6.1886 3.5027 10.125 8.0938 2.0796-10.644-1.6699-20.528 0-27.281l10.094 8.0625c2.2495-7.809 2.0954-17.053 2.0312-26.25 8.8681 1.0645 11.739 11.05 23.219 20.188 0.59724-13.055-0.27491-25.585-9.0938-35.344 6.3417-1.5857 8.4318 4.2946 11.125 9.0938 0.65377-12.998 1.6808-26.151-5.0625-36.375 3.5376-0.68163 6.5077 0.93805 9.0938 4.0625 1.6328-10.989-4.4846-16.192-8.0938-23.25 6.3772 1.0189 8.925 3.682 12.125 6.0625-0.0514-5.8515-1.8474-12.522-8.0625-21.219 4.5963-1.1113 6.7724 2.624 10.094 4.0625 5.9394-8.9693-0.18959-13.275-2.0312-19.219 3.1451-2.1061 7.0342 3.8289 11.125 12.125 1.2838-5.3006-0.54385-12.53-3.0312-20.188 2.0396 5.6662 5.15 8.1086 9.0938 8.0625 1.448-6.9511 0.0962-13.712-6.0625-20.188-0.45113-1.203 4.8852-1.7502 8.0625-5.0625 1.5108-9.8155-7.0625-18.188-7.0625-18.188l9.0938 2.0312c-2.9028-11.647-7.6184-22.509-17.156-31.312 3.5858-0.35421 7.6453 0.73519 13.125 6.0625 0 0-5.0533-23.232-49.5-74.75s-82.834-41.416-124.25-77.781z" fill="url(#h)"/> <path d="m86.875 213.94-5.8125 2.3438s-11.781 11.438-14.281 16.438c-0.88444 1.7689-7.3937 8.3829-15.938 16.75 5.1369 4.2685 8.3719 7.1125 10.594 8.5938 4.2857 2.8571 7.8571 11.442 10 17.156s2.8527 4.2812 4.2812 19.281 0.71875 63.571 0.71875 70-7.8661 92.866-6.4375 101.44-8.5714 74.991-5 68.562 24.299-82.143 27.156-110 12.129-73.571 12.844-95-5.7188-37.129-0.71875-32.844 22.857 22.844 25 12.844-21.411-34.286-22.125-40-11.438-22.134-6.4375-18.562 15.714 7.1473 15 0.71875-15.004-14.295-20.719-21.438c-2.3376-2.9221-3.1089-7.6354-3.2188-12.188-1.6324-1.302-3.2649-2.6525-4.9062-4.0938z" fill="#858522"/> <path d="m86.429 227.01c12.143 21.071 14.286 22.857 43.571 45.357s78.929 76.429 89.286 91.429 34.643 54.286 34.643 54.286-24.643-35.357-43.571-58.929-47.857-54.643-70.714-73.571-38.214-29.643-46.071-37.143-8.2143-3.2143-8.2143-3.2143l0.35714 31.429s38.929 47.5 59.286 79.286 37.143 66.786 48.214 86.786 25.357 54.286 27.143 57.143 3.2143 17.143 3.2143 17.143-18.571-42.143-26.429-58.571-42.5-81.786-67.5-116.07-45.357-60-45.357-60l3.9286 84.286s10 6.0714 25.357 36.071 32.143 65.714 44.643 109.29 17.143 65.714 17.143 68.214-1.7857 9.6428-1.7857 9.6428-6.4286-33.929-18.929-76.429-29.286-77.143-39.286-98.571-26.071-41.429-28.214-42.143 0.35714 20 0.35714 20l-9.2857 77.857s5.7143 5.7143 13.929 23.571 22.5 55 26.429 84.643 5 53.214 5 53.214l-3.5714 7.1429s-0.35714-41.071-8.2143-75.714-21.071-63.571-25.357-75-8.5714-11.071-8.5714-11.071l-7.1429 33.571-10.357 75.714s4.6429 2.1428 10 14.286 11.429 44.643 12.143 50.357 0.71429 11.786 0.71429 11.786-5-16.429-5.3571-21.429-5.7143-27.5-8.2143-35-10.714-16.071-10.714-16.071-4.2857 1.7857-8.2143 5.7143-30 38.571-30 38.571 17.857-31.429 22.143-36.429 14.643-10.357 14.643-10.357l14.286-88.214-0.35714-5s-3.9286 1.7857-7.1429 5.7143-33.929 53.571-33.929 53.571 8.9286-22.143 14.643-31.071 21.071-28.571 21.071-28.571l7.5-5.3571 4.6429-26.429 5.3571-39.286-1.0714-32.143s-5.3571 3.2143-11.071 12.143-21.786 38.929-21.786 38.929l-25.357 37.143-31.786 46.786s12.5-22.143 29.286-50 30-46.786 37.857-58.214 13.929-23.571 17.5-26.429 1.4286-1.4286 3.9286-3.2143l2.5-1.7857 1.4286-60.357-1.0714-18.214s-6.4286 8.5714-12.857 18.929-24.643 45-24.643 45-31.786 42.857-37.143 49.286-37.857 45.714-37.857 45.714 35.357-50 52.5-71.071 32.857-50.714 38.571-59.286 13.214-24.643 14.643-26.071 6.4286-7.8571 6.4286-7.8571l-0.35714-48.214s-18.929 20.714-23.214 26.786-24.286 26.786-24.286 26.786 31.786-47.5 37.857-53.571 8.2143-24.286 8.2143-24.286l4.6429-5z" fill="#dfff46"/> <path d="m87.143 225.22c-1.4286 34.286 2.2842 87.804 2.8571 127.86 0.49239 34.419-9.0192 125.99-14.286 137.14 0 0-10 74.286-15.714 100.71s-24.286 89.286-30 117.14-5 64.286-5 64.286-5-12.321-0.35714-43.571 18.393-80.714 22.5-98.75 9.4643-47.857 11.964-65.893 8.9286-51.429 9.8214-68.214 8.2143-39.464 8.9286-48.75 2.8571-46.071 2.8571-56.25 1.7857-43.214 1.25-55.179-1.0714-72.143-2.1429-83.929-3.2143-23.393-2.6786-25.893 7.8571-10.179 7.8571-10.179c0.8256 2.8765 3.0055 2.3671 2.1429 9.4643z" fill="#8e9f15"/> <path d="m85.656 217.19c-2.1288 2.3339-6.1074 6.9177-6.5 8.75-0.53571 2.5 1.5848 14.089 2.6562 25.875s1.6205 71.973 2.1562 83.938-1.25 45.009-1.25 55.188-2.1607 46.964-2.875 56.25-8.0134 31.964-8.9062 48.75-7.3438 50.183-9.8438 68.219-7.9478 46.608-12.19 64.612c-4.7822 20.296-19.16 67.095-23.279 100.26-2.8369 22.846-1.7751 34.533-0.65625 39.25-0.00716-10.014 0.42311-37.754 5.0312-60.219 5.7143-27.857 24.286-90.696 30-117.12s15.719-100.72 15.719-100.72c5.2665-11.153 14.774-102.74 14.281-137.16-0.57298-40.053-4.2723-93.558-2.8438-127.84 0.6836-5.624-0.55036-6.4904-1.5-8.0312z" fill="#e0f153"/> <path d="m251.43 719.51c2.1429-32.143 9.2857-95 10-109.29s2.8571-38.571-5.7143-50.714-30.714-34.286-30.714-34.286 25 37.143 27.143 69.286-9.2857 75.714-8.5714 87.857-5.7143 39.286-5.7143 39.286z" fill="url(#g)"/> <path d="m245 696.29c-7.8571 13.571-59.286 43.571-78.929 54.643s-50.714 24.286-57.5 27.143-7.1429 7.5-9.2857 12.143-6.0714 9.2857-6.0714 9.2857-9.6429 12.5-9.6429 15.714 12.857 2.5 12.857 2.5-15.357 6.0714-17.857 11.786-8.2143 17.143-6.7857 17.143 5.3571-3.5714 4.6429-1.7857-7.8571 14.643-5.7143 18.214-0.35714 6.7857 3.2143 2.8571 22.5-10.714 22.5-10.714-6.7857 6.7857-7.5 9.6428 3.5714 6.0714 3.5714 6.0714-4.2857 6.0714-3.9286 12.143-1.7857 15-1.0714 16.429 10.714-3.2143 12.5-4.6429 3.5714-6.7857 3.9286 1.7857-2.1429 18.214-4.6429 19.643-8.2143 9.2857-6.0714 9.2857 8.5714-4.2857 7.8571-1.4286-4.2857 17.5-3.9286 23.929 6.4286-2.5 8.2143-2.5 12.143-6.0714 12.5-2.5-8.5714 17.5-8.5714 17.5 7.8572-6.7857 7.8572-1.7857-4.2857 5-5.7143 10-3.9286 8.5714-1.7857 8.5714 0.71428 6.4286 0.35714 11.786 11.429-5 13.214-6.0714 2.1428 2.1429 1.4286 9.6429-5.3572 15.357-5.3572 22.143-2.5 8.2143 2.8572 5 14.286-10.714 13.571-6.4286-7.8572 11.071-9.2857 17.143-7.5 12.857-1.0714 9.6428 6.7857 2.1429 5.7143 4.2857-10.714 18.929-9.6429 20.714 7.8571 5.3572 6.4286 7.8572-10.714 6.4285-8.2143 7.8571 6.0714 0.3572 5 5.3572-1.7857 16.071 2.5 12.5 10.714-16.786 11.429-19.643-0.71429-11.071 1.7857-6.7857 3.5714 7.5 5.3572 5.7143 7.1428-16.429 6.0714-22.5 3.9286 0.3571 5 2.5 5-9.6429 5-9.6429 3.2143 5.7143 4.2857 9.6429 2.1429 3.2143 3.9286-0.3572 3.9286-12.5 4.2857-13.928 0-12.5 1.4286-8.9286 4.2857 6.0714 6.0714 3.2143 1.0714-14.643 3.2143-12.857 1.7857 11.786 2.5 13.929 3.9286-5.7143 9.6429-8.9286 7.1428-2.8571 7.8571-5.7143 2.1429-9.6428 2.1429-9.6428 1.4286 8.5714 3.5714 6.0714 8.5714-13.929 8.5714-13.929 0.35715 10.714 0.71429 13.572 0.35714 7.8571 0.35714 7.8571 9.2857-13.929 10.714-15.357 3.2143-0.3572 5-0.7143 6.4286-8.9286 7.1429-12.857 2.1428 0.35714 2.8571 2.8572 0.71428 9.6428 0.71428 9.6428 8.2143-6.0714 9.6429-9.2857 2.5-13.929 2.8571-11.429 2.5 15.357 2.5 15.357-2.8571 12.143 5.3572 0.7143 7.8571-13.571 8.2143-11.429 1.0714 7.5 3.9286 3.9286 2.5-14.643 3.9286-12.143 5.3571 10.357 6.4286 7.5 2.8571-16.786 2.8571-16.786l4.2857 4.6429s7.5-13.214 9.2857-16.071 1.0714 6.4286 0 9.6429 3.5714 5.7143 7.8571 2.8571 7.5-11.786 7.5-11.786 5.7143 9.6428 5.7143-0.71429 1.0714-15.714 1.7857-14.286 2.1429 12.143 4.6429 7.5 1.7857-17.5 3.9286-17.5 1.0714 8.9286 3.2143 7.1428 4.2857-11.071 5-16.071 0.35714-11.786 1.4286-9.2857 3.5714 10.714 3.2143 15 5 13.571 6.7857 8.5714 1.7857-21.071 4.6428-18.571 6.0714 9.2857 7.1429 3.9286-3.5714-22.143-3.5714-22.143 5 12.857 6.4286 8.2143-1.4286-14.286-2.1428-19.643-0.35715-6.7857 1.0714-5 4.6428 10.714 5 3.9286-5.3572-21.786-6.7857-30 2.1429 2.8572-1.7857-17.857-14.286-28.929-28.929-47.5-40.714-57.857-46.786-62.5-13.929-16.071-21.429-21.786-16.786-5.7143-17.857-12.5-7.1429-10.357-7.1429-10.357z" fill="url(#f)"/> <path d="m245 696.28c-0.18315 0.31635-0.42671 0.66625-0.65625 1-0.42325 14.186-3.8798 31.385-4.3438 44.375-0.71429 20-11.424 82.125-19.281 112.12s-41.429 106.43-45 115-28.562 57.879-33.562 68.594c-3.6137 7.7436-12.764 42.479-17.594 61.281 0.51438 0.9386 1.3423 1.1679 2.5938 0.125 4.2857-3.5715 10.692-16.768 11.406-19.625s-0.71875-11.067 1.7812-6.7812 3.5893 7.4732 5.375 5.6875 7.1339-16.429 6.0625-22.5 3.9286 0.3571 5 2.5 5-9.625 5-9.625 3.2098 5.6964 4.2812 9.625 2.1518 3.2278 3.9375-0.3437 3.9241-12.509 4.2812-13.938 9e-3 -12.478 1.4375-8.9062 4.2768 6.0446 6.0625 3.1875 1.0759-14.63 3.2188-12.844 1.7857 11.794 2.5 13.937 3.942-5.7232 9.6562-8.9374 7.1295-2.8616 7.8438-5.7188 2.1562-9.625 2.1562-9.625 1.4196 8.5625 3.5625 6.0625 8.5625-13.938 8.5625-13.938 0.36161 10.705 0.71875 13.562 0.34375 7.875 0.34375 7.875 9.2902-13.946 10.719-15.375 3.2143-0.3304 5-0.6875 6.442-8.9464 7.1562-12.875 2.1295 0.37498 2.8438 2.875 0.71875 9.625 0.71875 9.625 8.2277-6.0669 9.6562-9.2812 2.4866-13.938 2.8438-11.438 2.5 15.375 2.5 15.375-2.8393 12.147 5.375 0.7188 7.8304-13.58 8.1875-11.438 1.0804 7.5089 3.9375 3.9375 2.5089-14.656 3.9375-12.156 5.3661 10.357 6.4375 7.5 2.8438-16.781 2.8438-16.781l4.2812 4.625s7.4955-13.205 9.2812-16.062 1.0714 6.442 0 9.6562 3.5893 5.7009 7.875 2.8438 7.5-11.781 7.5-11.781 5.7188 9.6384 5.7188-0.71875 1.067-15.71 1.7812-14.281 2.125 12.143 4.625 7.5 1.7946-17.5 3.9375-17.5 1.0759 8.942 3.2188 7.1562 4.2857-11.094 5-16.094 0.36607-11.781 1.4375-9.2812 3.5446 10.714 3.1875 15 5.0268 13.562 6.8125 8.5625 1.7679-21.062 4.625-18.562 6.0848 9.2946 7.1562 3.9375-3.5938-22.156-3.5938-22.156 5.0089 12.862 6.4375 8.2188-1.4107-14.268-2.125-19.625-0.36608-6.7857 1.0625-5 4.6428 10.692 5 3.9062-5.3527-21.786-6.7812-30 2.1473 2.8705-1.7812-17.844-14.295-28.929-28.938-47.5-40.71-57.857-46.781-62.5-13.938-16.067-21.438-21.781-16.772-5.7143-17.844-12.5-7.1562-10.375-7.1562-10.375z" fill="url(#e)"/> <path d="m245 696.28c-1.2948 2.2366-3.8008 4.9356-7.125 7.9062-0.1588 5.8576-1.5 12.636-1.5 14.312 0 2.5254-13.622 18.694-20.188 24.25s-74.754 43.938-71.219 43.938 50.486-23.747 58.062-30.312 32.844-21.188 32.844-21.188-3.027 18.664-6.5625 27.25-23.758 29.294-35.375 37.375c-8.1361 5.6599-37.836 32.959-53.781 47.469 19.009-16.094 57.848-47.657 63.375-52 7.0711-5.5558 28.812-27.781 28.812-27.781s-1.532 32.324-4.5625 37.375-9.5938 21.719-9.5938 21.719-16.648 11.622-23.719 21.219-37.375 36.875-37.375 36.875 27.753-22.238 39.875-35.875 23.75-18.688 23.75-18.688 0.49667 10.117-2.2812 20.219-15.396 49.477-16.406 51.75-10.094 9.1047-19.438 11.125-19.969 17.938-19.969 17.938 8.8385-7.5852 18.688-14.656 17.438-5.5625 17.438-5.5625l-48 116.94s42.686-93.715 45.969-100.28 15.17-39.391 16.938-40.906 2.2787-3.0076 2.5312-2.25 9.3438 74.725 9.3438 77.25 3.2812-0.73382 3.2812-8.5625-0.26682-41.685-4.8125-60.625-5.3125-19.188-5.3125-19.188 10.62-33.848 11.125-39.656 2.7812-17.656 2.7812-17.656 15.642 28.005 20.188 46.188 17.698 79.814 16.688 85.875 0.5 12.125 0.5 12.125 0.75761-23.479 0-31.812-11.381-53.788-13.906-68.688-20.688-45.969-20.688-45.969l-1.2812-9.3438s4.3024-25.009 5.3125-30.312 3.7812-18.688 3.7812-18.688 19.955 32.316 27.531 47.469 25.006 67.189 27.531 73.25 7.3125 32.312 7.3125 32.312 1.2594-24.221-2.7812-33.312-13.892-52.808-30.812-84.375-23.206-38.126-24.469-41.156-0.76015-29.539 0.25-28.781 30.047 36.362 31.562 37.625 19.202 19.704 14.656 11.875-20.486-25.014-25.031-29.812-19.438-22.477-19.438-24.75c0-1.2563 0.3424-7.9003 0.6875-14.156-2.158-3.4619-5.1875-5.2812-5.1875-5.2812zm-104.84 151c-5.3084 4.4946-9.3514 8.0224-10.344 9.125-1.362 1.5133 3.5223-2.9175 10.344-9.125z" fill="#758412"/> <path d="m339.88 636.62c0.0415 0.24503 0.0656 0.4886 0.125 0.75 3.5714 15.714 9.9955 7.8438 19.281 12.844 4.8537 2.6135 10.703 4.8122 17.406 5.625l7.5938-7.0625-7.125-8.5625s-12.875 0.71428-22.875 0c-7.149-0.51065-10.644-0.68143-14.406-3.5938z" fill="#fff6b8"/> <path d="m344.29 450.93c48.571 2.8571 82.857 22.143 95 24.286s42.143 8.5714 42.143 8.5714-8.5714 2.8572-5 5 22.143 1.4286 30 4.2857-4.2857 3.5714-3.5714 6.4286 7.8572 7.8571 7.8572 7.8571l-8.5714 6.4286 19.286 9.2857s-15-2.8571-8.5714 2.8571 22.857 12.857 22.857 12.857-7.1429 7.1429-1.4286 11.429 8.5714 7.1428 8.5714 7.1428-2.8571-0.71428-3.5714 4.2857 3.5714 10 3.5714 10-15.714 0.71428-15.714 5 7.1428 11.429 5 15-10.714 2.8571-5 7.1428 2.1428 10 2.1428 10-13.571 0-12.857 6.4286 2.1429 20-2.8571 19.286-15-6.4286-14.286 0.71429 16.429 25.714 5 17.143-83.571-47.143-92.857-59.286-49.286-57.143-57.857-65-12.143-17.857-12.857-30-1.4286-24.286-2.8572-29.286-3.5714-7.8571-3.5714-7.8571z" fill="url(#d)"/> <path d="m358.44 452.28c-3.0964 0.88748-6.4734 1.8388-10.594 2.9375-3.3887 0.90366-7.3834 2.167-11.312 3.4688l-2.25 2.25s2.1339 2.8438 3.5625 7.8438c1.2818 4.4862 2.0086 14.766 2.6562 25.594 4.1511 7.4934 7.9728 15.035 10.219 17.281 4.2857 4.2857 26.438 37.125 26.438 37.125s0.6847 3.5598 1.625 6.375c0.87943 0.98256 1.7398 1.9127 2.625 2.9062 0.58875-0.94817 1.0871-3.4819 1.4375-8.5625 1.4286-20.714-4.9866-30.719-12.844-40.719s-7.8661-32.853-6.4375-39.281c0.81464-3.6659 5.3544-10.352 7.9062-15.156-4.1907-0.79296-8.5412-1.4906-13.031-2.0625z" fill="#8da324"/> <path d="m347.14 453.79c47.857 8.5714 62.143 23.571 69.286 30s56.429 50.714 66.429 55.714 46.429 26.429 37.857 22.143-39.286-15.714-70.714-42.857-55.714-50.714-74.286-53.571c-11.834-1.8207 17.857 18.571 22.857 24.286s29.286 30.714 36.429 50 44.286 42.857 52.857 46.429 28.571 10.714 25 10-32.143-5.7143-47.143-16.429-37.143-30-43.571-52.857c-2.9073-10.337-35-37.143-40-42.143s-20-22.857-20-22.857-15.714 14.286 0 42.143 66.429 79.286 77.143 82.857 45 23.571 31.429 16.429-35.714-10-43.571-18.571-46.429-41.429-53.571-55-21.429-25-23.571-36.429 0.71429-29.286 0.71429-29.286z" fill="#c1e824"/> <path d="m365 452.36c-28.571-4.2857-51.429 4.2857-55 8.5714s-0.71429 1.4286-3.5714 4.2857-18.571 15-26.429 22.143-17.143 12.143-28.571 19.286-14.286 9.2857-14.286 9.2857l-10 2.1429s0.71428 5.7143 15 5.7143 25.714-15.714 37.143-25.714 32.857-28.571 41.429-30.714 22.857-11.429 29.286-12.143 15-2.8572 15-2.8572z" fill="url(#c)"/> <path d="m285.71 568.79c-0.71429-5.7143 11.429-10.714 15-10s40 6.4286 45.714 13.571 21.429 17.143 17.857 20.714-12.143 5-17.143-1.4286 2.8571-9.2857-11.429-10-28.571 3.5714-35 1.4286-15-14.286-15-14.286z" fill="url(#b)"/> <path d="m371.43 640.22c3.5714-6.4286-6.4286-14.286 29.286-20s39.286-9.2857 44.286-8.5714 37.143 12.857 32.857 17.143-7.1428 7.8572-19.286 17.143-49.286 20.714-61.429 22.143-25-7.8571-25-7.8571c3.4859-6.6667 5.2332-13.333-0.71429-20z" fill="url(#a)"/> <path d="m391.41 621.97c-24.559 5.4996-16.75 12.457-19.969 18.25 1.1994 1.3444 2.0651 2.6868 2.6875 4.0312 1.7835 0.48297 3.7398 0.8264 5.875 0.96875 10.714 0.71428 4.9955 10.71 9.2812 9.2812s5-7.8438 5-7.8438l7.1562 0.71875s-2.1384-8.5714-4.2812-15c-1.8434-5.5301-5.2822 0.51283-5.75-10.406z" fill="#fafdf9"/> </g> </svg>